# xmcd CD database file
#
# Track frame offsets:
#	150
#	18855
#	50603
#	87982
#	117015
#	142067
#	158926
#	188158
#	199358
#	233781
#	240199
#	267564
#	296614
#
# Disc length: 4783 seconds
#
# Revision: 0
# Processed by: cddbd v1.5.2PL0 Copyright (c) Steve Scherf et al.
# Submitted via: CDex 1.51
#
DISCID=b712ad0d
DTITLE=Breinschmid and Gansch - DUO
DYEAR=2013
DGENRE=Jazz
TTITLE0=Unter Donner und Lee
TTITLE1=Geilomat
TTITLE2=5/4
TTITLE3=Klassik Gstanzln
TTITLE4=jaBISTdudenndeppat
TTITLE5=Der Tod
TTITLE6=Sombrero
TTITLE7=Ansage/Announcement
TTITLE8=Low n Green
TTITLE9=Irgendwas
TTITLE10=Kurt
TTITLE11=Herbert Schnitzler
TTITLE12=Blue Danube/Can`t buy me love/Something stupid/Tea for two
EXTD=YEAR: 2013
EXTT0=
EXTT1=
EXTT2=
EXTT3=
EXTT4=
EXTT5=
EXTT6=
EXTT7=
EXTT8=
EXTT9=
EXTT10=
EXTT11=
EXTT12=
PLAYORDER=
